<svg xmlns="http://www.w3.org/2000/svg" width="398" height="93.826" viewBox="0 0 398 93.826"><defs><style>.a{fill:#333;}.b{fill:#fddc00;}.c{fill:#ff9800;}.d{fill:#ff6900;}</style></defs><g transform="translate(-458.546 -86.681)"><path class="a" d="M572.849,175.667V123.954a3.715,3.715,0,0,1,3.714-3.714h0a3.715,3.715,0,0,1,3.714,3.714v.339l.563-.454a20.42,20.42,0,0,1,12.774-4.454,21.026,21.026,0,0,1,0,42.047,20.386,20.386,0,0,1-12.774-4.368l-.563-.453v19.057a3.714,3.714,0,0,1-3.714,3.714h0A3.715,3.715,0,0,1,572.849,175.667Zm20.766-49.281c-7.209,0-13.067,5.929-13.337,13.5v.525c0,7.863,5.858,14.023,13.337,14.023,7.432,0,13.254-6.16,13.254-14.023C606.869,132.677,600.924,126.386,593.615,126.386Z" transform="translate(-10.673 -3.054)"/><path class="a" d="M625.665,156.9V123.992a3.715,3.715,0,0,1,3.714-3.714h0a3.715,3.715,0,0,1,3.714,3.714v.883l.607-.7a13.942,13.942,0,0,1,7.766-4.312,3.319,3.319,0,0,1,4.022,3.233v.448a3.363,3.363,0,0,1-2.637,3.236c-4.99,1.216-9.757,5.666-9.757,15.289V156.9a3.714,3.714,0,0,1-3.714,3.714h0A3.714,3.714,0,0,1,625.665,156.9Z" transform="translate(-15.604 -3.092)"/><path class="a" d="M671.743,161.432a21.026,21.026,0,0,1,0-42.047,20.513,20.513,0,0,1,12.779,4.457l.558.44v-.327a3.715,3.715,0,0,1,3.714-3.714h0a3.715,3.715,0,0,1,3.714,3.714v32.909a3.714,3.714,0,0,1-3.714,3.714h0a3.715,3.715,0,0,1-3.714-3.714v-.242l-.558.441A20.475,20.475,0,0,1,671.743,161.432Zm0-35.046c-7.433,0-13.253,6.16-13.253,14.023s5.82,14.023,13.253,14.023c7.354,0,13.337-6.291,13.337-14.023C685.08,132.546,679.223,126.386,671.743,126.386Z" transform="translate(-17.976 -3.054)"/><path class="a" d="M727.51,180.237c-7.309,0-12.788-2.676-16.258-5.887a3.723,3.723,0,0,1,.065-5.469h0a3.781,3.781,0,0,1,5.107.062,16.049,16.049,0,0,0,11.169,4.293A11.91,11.91,0,0,0,739.4,161.3v-4.679l-.558.441a20.475,20.475,0,0,1-12.779,4.37,21.026,21.026,0,0,1,0-42.047,20.513,20.513,0,0,1,12.779,4.457l.558.44v-.327a3.715,3.715,0,0,1,3.714-3.714h0a3.715,3.715,0,0,1,3.715,3.714v37.4c0,2.566-.207,7.256-1.584,9.839C742.112,177.108,735.981,180.237,727.51,180.237Zm-1.452-53.851c-7.432,0-13.253,6.16-13.253,14.023s5.822,14.023,13.253,14.023c7.355,0,13.337-6.291,13.337-14.023C739.4,132.546,733.537,126.386,726.058,126.386Z" transform="translate(-23.047 -3.054)"/><path class="a" d="M832.234,160.577a3.714,3.714,0,0,1-3.714-3.714v-15.6c0-7.166-4.067-14.878-13-14.878-7.854,0-13.339,6.118-13.339,14.878v15.6a3.714,3.714,0,0,1-3.714,3.714h0a3.714,3.714,0,0,1-3.714-3.714v-15.6c0-7.166-4.067-14.878-13-14.878-7.852,0-13.337,6.118-13.337,14.878v15.6a3.714,3.714,0,0,1-3.714,3.714h0a3.715,3.715,0,0,1-3.714-3.714V123.954a3.715,3.715,0,0,1,3.714-3.714h0a3.715,3.715,0,0,1,3.714,3.714v.242l.559-.441a20.47,20.47,0,0,1,12.778-4.371,19.806,19.806,0,0,1,16.557,8.315l.277.4.286-.393a20.281,20.281,0,0,1,16.644-8.319c12.026,0,20.425,9,20.425,21.879v15.6a3.714,3.714,0,0,1-3.714,3.714Z" transform="translate(-28.24 -3.054)"/><path class="a" d="M872.5,161.432a21.026,21.026,0,0,1,0-42.047,20.513,20.513,0,0,1,12.779,4.457l.559.44v-.327a3.714,3.714,0,0,1,3.714-3.714h0a3.715,3.715,0,0,1,3.714,3.714v32.909a3.714,3.714,0,0,1-3.714,3.714h0a3.714,3.714,0,0,1-3.714-3.714v-.242l-.559.441A20.475,20.475,0,0,1,872.5,161.432Zm0-35.046c-7.432,0-13.253,6.16-13.253,14.023s5.821,14.023,13.253,14.023c7.355,0,13.338-6.291,13.338-14.023C885.839,132.546,879.981,126.386,872.5,126.386Z" transform="translate(-36.721 -3.054)"/><g transform="translate(458.546 86.681)"><circle class="b" cx="10.813" cy="10.813" r="10.813" transform="translate(12.576)"/><path class="c" d="M514.076,96.769a31.4,31.4,0,1,0,31.4,31.4A31.4,31.4,0,0,0,514.076,96.769Zm0,42.586a11.186,11.186,0,1,1,11.186-11.186A11.186,11.186,0,0,1,514.076,139.355Z" transform="translate(-460.799 -87.623)"/><circle class="d" cx="18.209" cy="18.209" r="18.209" transform="translate(0 57.408)"/></g></g></svg>